<svg xmlns="http://www.w3.org/2000/svg" xmlns:xlink="http://www.w3.org/1999/xlink" width="500" zoomAndPan="magnify" viewBox="0 0 375 374.999991" height="500" preserveAspectRatio="xMidYMid meet" version="1.0"><defs><clipPath id="a3b0aac6ed"><path d="M 114 15.152344 L 367.164062 15.152344 L 367.164062 360 L 114 360 Z M 114 15.152344 " clip-rule="nonzero"/></clipPath><clipPath id="f3f5cba8e7"><path d="M 7.914062 15.152344 L 171 15.152344 L 171 102 L 7.914062 102 Z M 7.914062 15.152344 " clip-rule="nonzero"/></clipPath><clipPath id="f86123c6f3"><path d="M 7.914062 15.152344 L 171 15.152344 L 171 102 L 7.914062 102 Z M 7.914062 15.152344 " clip-rule="nonzero"/></clipPath></defs><g clip-path="url(#a3b0aac6ed)"><path fill="#0a0c06" d="M 274.21875 257.609375 L 342.417969 359.847656 L 237.777344 359.847656 L 172.101562 261.363281 L 114.675781 175.1875 C 114.675781 175.1875 243.886719 175.1875 243.9375 175.1875 C 264.027344 175.1875 280.867188 158.328125 280.867188 138.257812 C 280.867188 117.882812 264.308594 101.324219 243.9375 101.324219 L 212.851562 101.324219 L 155.425781 15.152344 L 243.9375 15.152344 C 311.953125 15.152344 367.039062 70.242188 367.039062 138.257812 C 367.039062 172.234375 353.25 203.011719 330.96875 225.292969 C 315.65625 240.605469 295.1875 252.257812 274.21875 257.609375 " fill-opacity="1" fill-rule="evenodd"/></g><g clip-path="url(#f3f5cba8e7)"><path fill="#0a0c06" d="M 170.058594 101.324219 L 65.40625 101.324219 L 7.957031 15.152344 L 112.609375 15.152344 Z M 170.058594 101.324219 " fill-opacity="1" fill-rule="evenodd"/></g><path fill="#0a0c06" d="M 242.539062 221.011719 L 202.707031 221.011719 L 229.519531 261.320312 L 295.203125 359.847656 L 237.75 359.847656 L 196.390625 297.707031 L 114.714844 175.148438 C 114.714844 175.148438 243.882812 175.148438 243.972656 175.148438 C 263.984375 175.148438 280.839844 158.296875 280.839844 138.285156 C 280.839844 117.890625 264.273438 101.324219 243.972656 101.324219 L 212.871094 101.324219 L 184.152344 58.238281 L 242.539062 58.238281 C 287.539062 58.238281 323.925781 94.71875 323.925781 139.625 C 323.925781 184.53125 287.539062 221.011719 242.539062 221.011719 " fill-opacity="1" fill-rule="evenodd"/><g clip-path="url(#f86123c6f3)"><path fill="#0a0c06" d="M 7.957031 15.152344 L 65.40625 101.324219 L 170.058594 101.324219 L 141.332031 58.238281 L 97.738281 58.238281 C 64.210938 58.238281 32.351562 43.59375 10.527344 18.148438 Z M 7.957031 15.152344 " fill-opacity="1" fill-rule="evenodd"/></g></svg>